<svg viewBox="0 0 128 128" xmlns="http://www.w3.org/2000/svg">
  <!-- Outer circle -->
  <circle cx="64" cy="64" r="60" fill="#2a2a2a" stroke="#666" stroke-width="2"/>
  
  <!-- Roulette wheel segments -->
  <g id="wheel">
    <!-- Red segments -->
    <circle cx="64" cy="20" r="8" fill="#e74c3c"/>
    <circle cx="100" cy="28" r="8" fill="#e74c3c"/>
    <circle cx="108" cy="64" r="8" fill="#e74c3c"/>
    <circle cx="100" cy="100" r="8" fill="#e74c3c"/>
    <circle cx="64" cy="108" r="8" fill="#e74c3c"/>
    <circle cx="28" cy="100" r="8" fill="#e74c3c"/>
    <circle cx="20" cy="64" r="8" fill="#e74c3c"/>
    <circle cx="28" cy="28" r="8" fill="#e74c3c"/>
    
    <!-- Black segments -->
    <circle cx="82" cy="24" r="8" fill="#1a1a1a" stroke="#999" stroke-width="1"/>
    <circle cx="104" cy="44" r="8" fill="#1a1a1a" stroke="#999" stroke-width="1"/>
    <circle cx="104" cy="84" r="8" fill="#1a1a1a" stroke="#999" stroke-width="1"/>
    <circle cx="82" cy="104" r="8" fill="#1a1a1a" stroke="#999" stroke-width="1"/>
    <circle cx="46" cy="104" r="8" fill="#1a1a1a" stroke="#999" stroke-width="1"/>
    <circle cx="24" cy="84" r="8" fill="#1a1a1a" stroke="#999" stroke-width="1"/>
    <circle cx="24" cy="44" r="8" fill="#1a1a1a" stroke="#999" stroke-width="1"/>
    <circle cx="46" cy="24" r="8" fill="#1a1a1a" stroke="#999" stroke-width="1"/>
    
    <!-- Green center (0) -->
    <circle cx="64" cy="64" r="12" fill="#27ae60" stroke="#1abc9c" stroke-width="2"/>
    <text x="64" y="70" font-size="16" font-weight="bold" fill="white" text-anchor="middle">0</text>
  </g>
  
  <!-- Pointer/Triangle at top -->
  <polygon points="64,5 58,15 70,15" fill="#e74c3c" stroke="#999" stroke-width="1"/>
</svg>